# Created by Kenney (www.kenney.nl)

mtllib latex-coin.mtl

v 3 8 -0.5
v 3 6 -0.5
v 3 8 0.5
v 3 6 0.5
v 2 8 -0.5
v 2 8 0.5
v 2 6 0.5
v 2 6 -0.5
v 2 7 -0.5
v 2 7 0.5
v -3 8 -0.5
v -3 8 0.5
v -3 7 0.5
v -3 7 -0.5
v 5 7 -0.5
v 5 4 -0.5
v 5 7 0.5
v 5 4 0.5
v 4 7 -0.5
v 4 7 0.5
v 4 4 0.5
v 4 4 -0.5
v 4 6 -0.5
v 4 6 0.5
v 3 7 -0.5
v 3 7 0.5
v 2 5 -0.5
v 2 5 0.5
v -3 5 0.5
v -3 5 -0.5
v -5 7 -0.5
v -5 7 0.5
v -5 5 0.5
v -5 5 -0.5
v 6 6 -0.5
v 6 4 -0.5
v 6 6 0.5
v 6 4 0.5
v 5 6 -0.5
v 5 6 0.5
v 4 6 -1
v 4 5 -1
v 4 5 0.5
v 2 6 -1
v 2 5 -1
v -5 6 -0.5
v -5 4 -0.5
v -5 6 0.5
v -5 4 0.5
v -6 6 -0.5
v -6 6 0.5
v -6 4 0.5
v -6 4 -0.5
v 7 5 -0.5
v 7 -5 -0.5
v 7 5 0.5
v 7 -5 0.5
v 6 5 -0.5
v 6 5 0.5
v 6 -5 0.5
v 6 -5 -0.5
v 4 5 -0.5
v 4 -6 -0.5
v 4 -6 0.5
v 3 5 -0.5
v 3 5 0.5
v 3 -6 0.5
v 3 -6 -0.5
v 3 5 -1
v 3 -4 -1
v 3 -4 0.5
v 1 5 -1
v 1 5 0.5
v 1 -4 0.5
v 1 -4 -1
v 1 5 -0.5
v 1 -2 -0.5
v 1 -2 0.5
v -4 5 -0.5
v -4 5 0.5
v -4 -2 0.5
v -4 -2 -0.5
v -4 4 -0.5
v -4 4 0.5
v -6 5 -0.5
v -6 1 -0.5
v -6 5 0.5
v -6 1 0.5
v -7 5 -0.5
v -7 5 0.5
v -7 1 0.5
v -7 1 -0.5
v 6 -4 -0.5
v 6 -4 0.5
v 4 -4 0.5
v 4 -4 -0.5
v -4 -3 -0.5
v -4 -3 0.5
v -6 -3 0.5
v -6 -3 -0.5
v 8 3 -0.5
v 8 -3 -0.5
v 8 3 0.5
v 8 -3 0.5
v 7 3 -0.5
v 7 3 0.5
v 7 -3 0.5
v 7 -3 -0.5
v -7 3 -0.5
v -7 -3 -0.5
v -7 3 0.5
v -7 -3 0.5
v -8 3 -0.5
v -8 3 0.5
v -8 -3 0.5
v -8 -3 -0.5
v -6 -2 -0.5
v -6 -2 0.5
v -7 -2 0.5
v -7 -2 -0.5
v 1 -2 -1
v -4 -2 -1
v -4 -4 0.5
v -4 -4 -1
v -6 -5 -0.5
v -6 -5 0.5
v -7 -5 0.5
v -7 -5 -0.5
v -4 -3 -1
v -4 -5 -1
v -4 -5 0.5
v -5 -3 -1
v -5 -3 0.5
v -5 -5 0.5
v -5 -5 -1
v -5 -3 -0.5
v -5 -5 -0.5
v 6 -6 -0.5
v 6 -6 0.5
v 3 -4 -0.5
v -3 -4 -0.5
v -3 -4 0.5
v -3 -6 0.5
v -3 -6 -0.5
v -3 -5 -0.5
v -3 -5 0.5
v -4 -4 -0.5
v -4 -5 -0.5
v -3 -7 -0.5
v -3 -7 0.5
v -5 -7 0.5
v -5 -7 -0.5
v -5 -6 -0.5
v -5 -6 0.5
v -6 -6 0.5
v -6 -6 -0.5
v 5 -6 -0.5
v 5 -7 -0.5
v 5 -6 0.5
v 5 -7 0.5
v 3 -7 -0.5
v 3 -8 -0.5
v 3 -7 0.5
v 3 -8 0.5
v -3 -8 0.5
v -3 -8 -0.5

vn 1 0 0
vn 0 1 0
vn 0 -1 0
vn -1 0 0
vn 0 0 -1
vn 0 0 1

vt 0.6875 0.0625
vt 0.5625 0.0625

usemtl latex-coin

f 3/1/1 2/1/1 1/1/1
f 2/1/1 3/1/1 4/1/1
f 5/1/2 3/1/2 1/1/2
f 3/1/2 5/1/2 6/1/2
f 7/1/3 2/1/3 4/1/3
f 2/1/3 7/1/3 8/1/3
f 7/1/4 5/1/4 8/1/4
f 5/1/4 7/1/4 6/1/4
f 5/1/5 2/1/5 8/1/5
f 2/1/5 5/1/5 1/1/5
f 3/1/6 7/1/6 4/1/6
f 7/1/6 3/1/6 6/1/6
f 6/1/1 9/1/1 5/1/1
f 9/1/1 6/1/1 10/1/1
f 11/1/2 6/1/2 5/1/2
f 6/1/2 11/1/2 12/1/2
f 13/1/3 9/1/3 10/1/3
f 9/1/3 13/1/3 14/1/3
f 13/1/4 11/1/4 14/1/4
f 11/1/4 13/1/4 12/1/4
f 11/1/5 9/1/5 14/1/5
f 9/1/5 11/1/5 5/1/5
f 6/1/6 13/1/6 10/1/6
f 13/1/6 6/1/6 12/1/6
f 17/1/1 16/1/1 15/1/1
f 16/1/1 17/1/1 18/1/1
f 19/1/2 17/1/2 15/1/2
f 17/1/2 19/1/2 20/1/2
f 21/1/3 16/1/3 18/1/3
f 16/1/3 21/1/3 22/1/3
f 21/1/4 19/1/4 22/1/4
f 19/1/4 21/1/4 20/1/4
f 19/1/5 16/1/5 22/1/5
f 16/1/5 19/1/5 15/1/5
f 17/1/6 21/1/6 18/1/6
f 21/1/6 17/1/6 20/1/6
f 20/1/1 23/1/1 19/1/1
f 23/1/1 20/1/1 24/1/1
f 25/1/2 20/1/2 19/1/2
f 20/1/2 25/1/2 26/1/2
f 4/1/3 23/1/3 24/1/3
f 23/1/3 4/1/3 2/1/3
f 4/1/4 25/1/4 2/1/4
f 25/1/4 4/1/4 26/1/4
f 25/1/5 23/1/5 2/1/5
f 23/1/5 25/1/5 19/1/5
f 20/1/6 4/1/6 24/1/6
f 4/1/6 20/1/6 26/1/6
f 10/1/1 27/1/1 9/1/1
f 27/1/1 10/1/1 28/1/1
f 14/1/2 10/1/2 9/1/2
f 10/1/2 14/1/2 13/1/2
f 29/1/3 27/1/3 28/1/3
f 27/1/3 29/1/3 30/1/3
f 29/1/4 14/1/4 30/1/4
f 14/1/4 29/1/4 13/1/4
f 14/1/5 27/1/5 30/1/5
f 27/1/5 14/1/5 9/1/5
f 10/1/6 29/1/6 28/1/6
f 29/1/6 10/1/6 13/1/6
f 13/1/1 30/1/1 14/1/1
f 30/1/1 13/1/1 29/1/1
f 31/1/2 13/1/2 14/1/2
f 13/1/2 31/1/2 32/1/2
f 33/1/3 30/1/3 29/1/3
f 30/1/3 33/1/3 34/1/3
f 33/1/4 31/1/4 34/1/4
f 31/1/4 33/1/4 32/1/4
f 31/1/5 30/1/5 34/1/5
f 30/1/5 31/1/5 14/1/5
f 13/1/6 33/1/6 29/1/6
f 33/1/6 13/1/6 32/1/6
f 37/1/1 36/1/1 35/1/1
f 36/1/1 37/1/1 38/1/1
f 39/1/2 37/1/2 35/1/2
f 37/1/2 39/1/2 40/1/2
f 18/1/3 36/1/3 38/1/3
f 36/1/3 18/1/3 16/1/3
f 18/1/4 39/1/4 16/1/4
f 39/1/4 18/1/4 40/1/4
f 39/1/5 36/1/5 16/1/5
f 36/1/5 39/1/5 35/1/5
f 37/1/6 18/1/6 38/1/6
f 18/1/6 37/1/6 40/1/6
f 24/2/1 42/2/1 41/2/1
f 42/2/1 24/2/1 43/2/1
f 44/2/2 24/2/2 41/2/2
f 24/2/2 44/2/2 7/2/2
f 28/2/3 42/2/3 43/2/3
f 42/2/3 28/2/3 45/2/3
f 28/2/4 44/2/4 45/2/4
f 44/2/4 28/2/4 7/2/4
f 44/2/5 42/2/5 45/2/5
f 42/2/5 44/2/5 41/2/5
f 24/2/6 28/2/6 43/2/6
f 28/2/6 24/2/6 7/2/6
f 48/1/1 47/1/1 46/1/1
f 47/1/1 48/1/1 49/1/1
f 50/1/2 48/1/2 46/1/2
f 48/1/2 50/1/2 51/1/2
f 52/1/3 47/1/3 49/1/3
f 47/1/3 52/1/3 53/1/3
f 52/1/4 50/1/4 53/1/4
f 50/1/4 52/1/4 51/1/4
f 50/1/5 47/1/5 53/1/5
f 47/1/5 50/1/5 46/1/5
f 48/1/6 52/1/6 49/1/6
f 52/1/6 48/1/6 51/1/6
f 56/1/1 55/1/1 54/1/1
f 55/1/1 56/1/1 57/1/1
f 58/1/2 56/1/2 54/1/2
f 56/1/2 58/1/2 59/1/2
f 60/1/3 55/1/3 57/1/3
f 55/1/3 60/1/3 61/1/3
f 60/1/4 58/1/4 61/1/4
f 58/1/4 60/1/4 59/1/4
f 58/1/5 55/1/5 61/1/5
f 55/1/5 58/1/5 54/1/5
f 56/1/6 60/1/6 57/1/6
f 60/1/6 56/1/6 59/1/6
f 43/1/1 63/1/1 62/1/1
f 63/1/1 43/1/1 64/1/1
f 65/1/2 43/1/2 62/1/2
f 43/1/2 65/1/2 66/1/2
f 67/1/3 63/1/3 64/1/3
f 63/1/3 67/1/3 68/1/3
f 67/1/4 65/1/4 68/1/4
f 65/1/4 67/1/4 66/1/4
f 65/1/5 63/1/5 68/1/5
f 63/1/5 65/1/5 62/1/5
f 43/1/6 67/1/6 64/1/6
f 67/1/6 43/1/6 66/1/6
f 66/2/1 70/2/1 69/2/1
f 70/2/1 66/2/1 71/2/1
f 72/2/2 66/2/2 69/2/2
f 66/2/2 72/2/2 73/2/2
f 74/2/3 70/2/3 71/2/3
f 70/2/3 74/2/3 75/2/3
f 74/2/4 72/2/4 75/2/4
f 72/2/4 74/2/4 73/2/4
f 72/2/5 70/2/5 75/2/5
f 70/2/5 72/2/5 69/2/5
f 66/2/6 74/2/6 71/2/6
f 74/2/6 66/2/6 73/2/6
f 73/1/1 77/1/1 76/1/1
f 77/1/1 73/1/1 78/1/1
f 79/1/2 73/1/2 76/1/2
f 73/1/2 79/1/2 80/1/2
f 81/1/3 77/1/3 78/1/3
f 77/1/3 81/1/3 82/1/3
f 81/1/4 79/1/4 82/1/4
f 79/1/4 81/1/4 80/1/4
f 79/1/5 77/1/5 82/1/5
f 77/1/5 79/1/5 76/1/5
f 73/1/6 81/1/6 78/1/6
f 81/1/6 73/1/6 80/1/6
f 80/1/1 83/1/1 79/1/1
f 83/1/1 80/1/1 84/1/1
f 34/1/2 80/1/2 79/1/2
f 80/1/2 34/1/2 33/1/2
f 49/1/3 83/1/3 84/1/3
f 83/1/3 49/1/3 47/1/3
f 49/1/4 34/1/4 47/1/4
f 34/1/4 49/1/4 33/1/4
f 34/1/5 83/1/5 47/1/5
f 83/1/5 34/1/5 79/1/5
f 80/1/6 49/1/6 84/1/6
f 49/1/6 80/1/6 33/1/6
f 87/1/1 86/1/1 85/1/1
f 86/1/1 87/1/1 88/1/1
f 89/1/2 87/1/2 85/1/2
f 87/1/2 89/1/2 90/1/2
f 91/1/3 86/1/3 88/1/3
f 86/1/3 91/1/3 92/1/3
f 91/1/4 89/1/4 92/1/4
f 89/1/4 91/1/4 90/1/4
f 89/1/5 86/1/5 92/1/5
f 86/1/5 89/1/5 85/1/5
f 87/1/6 91/1/6 88/1/6
f 91/1/6 87/1/6 90/1/6
f 38/1/1 93/1/1 36/1/1
f 93/1/1 38/1/1 94/1/1
f 22/1/2 38/1/2 36/1/2
f 38/1/2 22/1/2 21/1/2
f 95/1/3 93/1/3 94/1/3
f 93/1/3 95/1/3 96/1/3
f 95/1/4 22/1/4 96/1/4
f 22/1/4 95/1/4 21/1/4
f 22/1/5 93/1/5 96/1/5
f 93/1/5 22/1/5 36/1/5
f 38/1/6 95/1/6 94/1/6
f 95/1/6 38/1/6 21/1/6
f 84/1/1 97/1/1 83/1/1
f 97/1/1 84/1/1 98/1/1
f 53/1/2 84/1/2 83/1/2
f 84/1/2 53/1/2 52/1/2
f 99/1/3 97/1/3 98/1/3
f 97/1/3 99/1/3 100/1/3
f 99/1/4 53/1/4 100/1/4
f 53/1/4 99/1/4 52/1/4
f 53/1/5 97/1/5 100/1/5
f 97/1/5 53/1/5 83/1/5
f 84/1/6 99/1/6 98/1/6
f 99/1/6 84/1/6 52/1/6
f 103/1/1 102/1/1 101/1/1
f 102/1/1 103/1/1 104/1/1
f 105/1/2 103/1/2 101/1/2
f 103/1/2 105/1/2 106/1/2
f 107/1/3 102/1/3 104/1/3
f 102/1/3 107/1/3 108/1/3
f 107/1/4 105/1/4 108/1/4
f 105/1/4 107/1/4 106/1/4
f 105/1/5 102/1/5 108/1/5
f 102/1/5 105/1/5 101/1/5
f 103/1/6 107/1/6 104/1/6
f 107/1/6 103/1/6 106/1/6
f 111/1/1 110/1/1 109/1/1
f 110/1/1 111/1/1 112/1/1
f 113/1/2 111/1/2 109/1/2
f 111/1/2 113/1/2 114/1/2
f 115/1/3 110/1/3 112/1/3
f 110/1/3 115/1/3 116/1/3
f 115/1/4 113/1/4 116/1/4
f 113/1/4 115/1/4 114/1/4
f 113/1/5 110/1/5 116/1/5
f 110/1/5 113/1/5 109/1/5
f 111/1/6 115/1/6 112/1/6
f 115/1/6 111/1/6 114/1/6
f 88/1/1 117/1/1 86/1/1
f 117/1/1 88/1/1 118/1/1
f 92/1/2 88/1/2 86/1/2
f 88/1/2 92/1/2 91/1/2
f 119/1/3 117/1/3 118/1/3
f 117/1/3 119/1/3 120/1/3
f 119/1/4 92/1/4 120/1/4
f 92/1/4 119/1/4 91/1/4
f 92/1/5 117/1/5 120/1/5
f 117/1/5 92/1/5 86/1/5
f 88/1/6 119/1/6 118/1/6
f 119/1/6 88/1/6 91/1/6
f 78/2/1 75/2/1 121/2/1
f 75/2/1 78/2/1 74/2/1
f 122/2/2 78/2/2 121/2/2
f 78/2/2 122/2/2 81/2/2
f 123/2/3 75/2/3 74/2/3
f 75/2/3 123/2/3 124/2/3
f 123/2/4 122/2/4 124/2/4
f 122/2/4 123/2/4 81/2/4
f 122/2/5 75/2/5 124/2/5
f 75/2/5 122/2/5 121/2/5
f 78/2/6 123/2/6 74/2/6
f 123/2/6 78/2/6 81/2/6
f 118/1/1 125/1/1 117/1/1
f 125/1/1 118/1/1 126/1/1
f 120/1/2 118/1/2 117/1/2
f 118/1/2 120/1/2 119/1/2
f 127/1/3 125/1/3 126/1/3
f 125/1/3 127/1/3 128/1/3
f 127/1/4 120/1/4 128/1/4
f 120/1/4 127/1/4 119/1/4
f 120/1/5 125/1/5 128/1/5
f 125/1/5 120/1/5 117/1/5
f 118/1/6 127/1/6 126/1/6
f 127/1/6 118/1/6 119/1/6
f 98/2/1 130/2/1 129/2/1
f 130/2/1 98/2/1 131/2/1
f 132/2/2 98/2/2 129/2/2
f 98/2/2 132/2/2 133/2/2
f 134/2/3 130/2/3 131/2/3
f 130/2/3 134/2/3 135/2/3
f 134/2/4 132/2/4 135/2/4
f 132/2/4 134/2/4 133/2/4
f 132/2/5 130/2/5 135/2/5
f 130/2/5 132/2/5 129/2/5
f 98/2/6 134/2/6 131/2/6
f 134/2/6 98/2/6 133/2/6
f 133/1/1 137/1/1 136/1/1
f 137/1/1 133/1/1 134/1/1
f 100/1/2 133/1/2 136/1/2
f 133/1/2 100/1/2 99/1/2
f 126/1/3 137/1/3 134/1/3
f 137/1/3 126/1/3 125/1/3
f 126/1/4 100/1/4 125/1/4
f 100/1/4 126/1/4 99/1/4
f 100/1/5 137/1/5 125/1/5
f 137/1/5 100/1/5 136/1/5
f 133/1/6 126/1/6 134/1/6
f 126/1/6 133/1/6 99/1/6
f 94/1/1 138/1/1 93/1/1
f 138/1/1 94/1/1 139/1/1
f 96/1/2 94/1/2 93/1/2
f 94/1/2 96/1/2 95/1/2
f 64/1/3 138/1/3 139/1/3
f 138/1/3 64/1/3 63/1/3
f 64/1/4 96/1/4 63/1/4
f 96/1/4 64/1/4 95/1/4
f 96/1/5 138/1/5 63/1/5
f 138/1/5 96/1/5 93/1/5
f 94/1/6 64/1/6 139/1/6
f 64/1/6 94/1/6 95/1/6
f 71/1/1 68/1/1 140/1/1
f 68/1/1 71/1/1 67/1/1
f 141/1/2 71/1/2 140/1/2
f 71/1/2 141/1/2 142/1/2
f 143/1/3 68/1/3 67/1/3
f 68/1/3 143/1/3 144/1/3
f 143/1/4 141/1/4 144/1/4
f 141/1/4 143/1/4 142/1/4
f 141/1/5 68/1/5 144/1/5
f 68/1/5 141/1/5 140/1/5
f 71/1/6 143/1/6 67/1/6
f 143/1/6 71/1/6 142/1/6
f 142/1/1 145/1/1 141/1/1
f 145/1/1 142/1/1 146/1/1
f 147/1/2 142/1/2 141/1/2
f 142/1/2 147/1/2 123/1/2
f 131/1/3 145/1/3 146/1/3
f 145/1/3 131/1/3 148/1/3
f 131/1/4 147/1/4 148/1/4
f 147/1/4 131/1/4 123/1/4
f 147/1/5 145/1/5 148/1/5
f 145/1/5 147/1/5 141/1/5
f 142/1/6 131/1/6 146/1/6
f 131/1/6 142/1/6 123/1/6
f 146/1/1 149/1/1 145/1/1
f 149/1/1 146/1/1 150/1/1
f 137/1/2 146/1/2 145/1/2
f 146/1/2 137/1/2 134/1/2
f 151/1/3 149/1/3 150/1/3
f 149/1/3 151/1/3 152/1/3
f 151/1/4 137/1/4 152/1/4
f 137/1/4 151/1/4 134/1/4
f 137/1/5 149/1/5 152/1/5
f 149/1/5 137/1/5 145/1/5
f 146/1/6 151/1/6 150/1/6
f 151/1/6 146/1/6 134/1/6
f 134/1/1 153/1/1 137/1/1
f 153/1/1 134/1/1 154/1/1
f 125/1/2 134/1/2 137/1/2
f 134/1/2 125/1/2 126/1/2
f 155/1/3 153/1/3 154/1/3
f 153/1/3 155/1/3 156/1/3
f 155/1/4 125/1/4 156/1/4
f 125/1/4 155/1/4 126/1/4
f 125/1/5 153/1/5 156/1/5
f 153/1/5 125/1/5 137/1/5
f 134/1/6 155/1/6 154/1/6
f 155/1/6 134/1/6 126/1/6
f 159/1/1 158/1/1 157/1/1
f 158/1/1 159/1/1 160/1/1
f 144/1/2 159/1/2 157/1/2
f 159/1/2 144/1/2 143/1/2
f 150/1/3 158/1/3 160/1/3
f 158/1/3 150/1/3 149/1/3
f 150/1/4 144/1/4 149/1/4
f 144/1/4 150/1/4 143/1/4
f 144/1/5 158/1/5 149/1/5
f 158/1/5 144/1/5 157/1/5
f 159/1/6 150/1/6 160/1/6
f 150/1/6 159/1/6 143/1/6
f 163/1/1 162/1/1 161/1/1
f 162/1/1 163/1/1 164/1/1
f 149/1/2 163/1/2 161/1/2
f 163/1/2 149/1/2 150/1/2
f 165/1/3 162/1/3 164/1/3
f 162/1/3 165/1/3 166/1/3
f 165/1/4 149/1/4 166/1/4
f 149/1/4 165/1/4 150/1/4
f 149/1/5 162/1/5 166/1/5
f 162/1/5 149/1/5 161/1/5
f 163/1/6 165/1/6 164/1/6
f 165/1/6 163/1/6 150/1/6
f 6/1/1 9/1/1 5/1/1
f 9/1/1 6/1/1 10/1/1
f 11/1/2 6/1/2 5/1/2
f 6/1/2 11/1/2 12/1/2
f 13/1/3 9/1/3 10/1/3
f 9/1/3 13/1/3 14/1/3
f 13/1/4 11/1/4 14/1/4
f 11/1/4 13/1/4 12/1/4
f 11/1/5 9/1/5 14/1/5
f 9/1/5 11/1/5 5/1/5
f 6/1/6 13/1/6 10/1/6
f 13/1/6 6/1/6 12/1/6
f 20/1/1 23/1/1 19/1/1
f 23/1/1 20/1/1 24/1/1
f 25/1/2 20/1/2 19/1/2
f 20/1/2 25/1/2 26/1/2
f 4/1/3 23/1/3 24/1/3
f 23/1/3 4/1/3 2/1/3
f 4/1/4 25/1/4 2/1/4
f 25/1/4 4/1/4 26/1/4
f 25/1/5 23/1/5 2/1/5
f 23/1/5 25/1/5 19/1/5
f 20/1/6 4/1/6 24/1/6
f 4/1/6 20/1/6 26/1/6
f 142/1/1 145/1/1 141/1/1
f 145/1/1 142/1/1 146/1/1
f 147/1/2 142/1/2 141/1/2
f 142/1/2 147/1/2 123/1/2
f 131/1/3 145/1/3 146/1/3
f 145/1/3 131/1/3 148/1/3
f 131/1/4 147/1/4 148/1/4
f 147/1/4 131/1/4 123/1/4
f 147/1/5 145/1/5 148/1/5
f 145/1/5 147/1/5 141/1/5
f 142/1/6 131/1/6 146/1/6
f 131/1/6 142/1/6 123/1/6
f 134/1/1 153/1/1 137/1/1
f 153/1/1 134/1/1 154/1/1
f 125/1/2 134/1/2 137/1/2
f 134/1/2 125/1/2 126/1/2
f 155/1/3 153/1/3 154/1/3
f 153/1/3 155/1/3 156/1/3
f 155/1/4 125/1/4 156/1/4
f 125/1/4 155/1/4 126/1/4
f 125/1/5 153/1/5 156/1/5
f 153/1/5 125/1/5 137/1/5
f 134/1/6 155/1/6 154/1/6
f 155/1/6 134/1/6 126/1/6

